<?xml version="1.0" encoding="UTF-8"?>
<!DOCTYPE svg PUBLIC "-//W3C//DTD SVG 1.1//EN" "http://www.w3.org/Graphics/SVG/1.1/DTD/svg11.dtd">
<svg xmlns="http://www.w3.org/2000/svg" version="1.1" width="100px" height="100px" style="shape-rendering:geometricPrecision; text-rendering:geometricPrecision; image-rendering:optimizeQuality; fill-rule:evenodd; clip-rule:evenodd" xmlns:xlink="http://www.w3.org/1999/xlink">
<g><path style="opacity:1" fill="#41434c" d="M 19.5,-0.5 C 23.8333,-0.5 28.1667,-0.5 32.5,-0.5C 44.5442,8.49667 45.2108,18.33 34.5,29C 24.4515,33.5397 16.6182,31.0397 11,21.5C 8.09945,11.703 10.9328,4.36966 19.5,-0.5 Z"/></g>
<g><path style="opacity:1" fill="#ff9004" d="M 67.5,-0.5 C 77.8333,-0.5 88.1667,-0.5 98.5,-0.5C 98.5,0.166667 98.5,0.833333 98.5,1.5C 97.1154,2.57357 95.9487,3.90691 95,5.5C 91.2345,12.0311 87.7345,18.6978 84.5,25.5C 81.3768,28.9758 79.0435,32.9758 77.5,37.5C 75.412,39.3356 74.0787,41.6689 73.5,44.5C 69.4137,49.6649 66.0804,55.3315 63.5,61.5C 63.5,62.1667 63.5,62.8333 63.5,63.5C 63.1667,63.5 62.8333,63.5 62.5,63.5C 60.2753,66.2624 58.2753,69.2624 56.5,72.5C 56.6236,73.1067 56.9569,73.44 57.5,73.5C 56.9717,74.7206 56.305,75.8873 55.5,77C 57.3945,79.4597 58.0612,81.9597 57.5,84.5C 56.4043,81.9684 55.0709,79.6351 53.5,77.5C 50.7939,68.0342 47.1272,59.0342 42.5,50.5C 42.1667,48.5 41.8333,46.5 41.5,44.5C 43.5587,42.7396 44.892,40.4062 45.5,37.5C 45.3284,36.5084 45.6618,35.8417 46.5,35.5C 48.588,33.6644 49.9213,31.3311 50.5,28.5C 52.5587,26.7396 53.892,24.4062 54.5,21.5C 56.5587,19.7396 57.892,17.4062 58.5,14.5C 60.1042,13.713 60.7709,12.3797 60.5,10.5C 61.9063,10.0269 62.573,9.02694 62.5,7.5C 63.3764,7.63088 64.0431,7.29755 64.5,6.5C 65.3195,4.02621 66.3195,1.69288 67.5,-0.5 Z"/></g>
<g><path style="opacity:0.816" fill="#ffbf75" d="M 66.5,-0.5 C 66.8333,-0.5 67.1667,-0.5 67.5,-0.5C 66.3195,1.69288 65.3195,4.02621 64.5,6.5C 64.0431,7.29755 63.3764,7.63088 62.5,7.5C 63.3084,4.54978 64.6418,1.88311 66.5,-0.5 Z"/></g>
<g><path style="opacity:0.118" fill="#fddfbc" d="M 98.5,1.5 C 94.8393,10.1644 90.1726,18.1644 84.5,25.5C 87.7345,18.6978 91.2345,12.0311 95,5.5C 95.9487,3.90691 97.1154,2.57357 98.5,1.5 Z"/></g>
<g><path style="opacity:0.196" fill="#fbe7c9" d="M 62.5,7.5 C 62.573,9.02694 61.9063,10.0269 60.5,10.5C 60.427,8.97306 61.0937,7.97306 62.5,7.5 Z"/></g>
<g><path style="opacity:0.404" fill="#ffd4a0" d="M 60.5,10.5 C 60.7709,12.3797 60.1042,13.713 58.5,14.5C 58.6596,12.847 59.3263,11.5137 60.5,10.5 Z"/></g>
<g><path style="opacity:0.922" fill="#ffc585" d="M 58.5,14.5 C 57.892,17.4062 56.5587,19.7396 54.5,21.5C 55.0787,18.6689 56.412,16.3356 58.5,14.5 Z"/></g>
<g><path style="opacity:0.89" fill="#ffc684" d="M 54.5,21.5 C 53.892,24.4062 52.5587,26.7396 50.5,28.5C 51.0787,25.6689 52.412,23.3356 54.5,21.5 Z"/></g>
<g><path style="opacity:0.008" fill="#fde2c0" d="M 84.5,25.5 C 82.9565,30.0242 80.6232,34.0242 77.5,37.5C 79.0435,32.9758 81.3768,28.9758 84.5,25.5 Z"/></g>
<g><path style="opacity:0.125" fill="#fedfba" d="M 50.5,28.5 C 49.9213,31.3311 48.588,33.6644 46.5,35.5C 47.0787,32.6689 48.412,30.3356 50.5,28.5 Z"/></g>
<g><path style="opacity:0.971" fill="#41434d" d="M 37.5,48.5 C 36.6618,48.8417 36.3284,49.5084 36.5,50.5C 35.6618,50.8417 35.3284,51.5084 35.5,52.5C 34.6618,52.8417 34.3284,53.5084 34.5,54.5C 33.6618,54.8417 33.3284,55.5084 33.5,56.5C 32.6618,56.8417 32.3284,57.5084 32.5,58.5C 31.8333,58.5 31.5,58.8333 31.5,59.5C 30.8333,59.5 30.5,59.8333 30.5,60.5C 29.6618,60.8417 29.3284,61.5084 29.5,62.5C 29.5,62.8333 29.5,63.1667 29.5,63.5C 29.5,63.8333 29.5,64.1667 29.5,64.5C 28.8333,64.5 28.5,64.8333 28.5,65.5C 28.5,65.8333 28.5,66.1667 28.5,66.5C 28.1667,66.5 27.8333,66.5 27.5,66.5C 26.3263,67.5137 25.6596,68.847 25.5,70.5C 25.5,70.8333 25.5,71.1667 25.5,71.5C 25.5,72.1667 25.1667,72.5 24.5,72.5C 22.7073,74.4261 21.7073,76.7594 21.5,79.5C 20.0937,79.9731 19.427,80.9731 19.5,82.5C 16.9911,88.1924 13.9911,93.5257 10.5,98.5C 10.5,78.1667 10.5,57.8333 10.5,37.5C 20.8333,37.5 31.1667,37.5 41.5,37.5C 40.4519,41.2644 39.1185,44.931 37.5,48.5 Z"/></g>
<g><path style="opacity:0.118" fill="#fddfb9" d="M 77.5,37.5 C 76.9213,40.3311 75.588,42.6644 73.5,44.5C 74.0787,41.6689 75.412,39.3356 77.5,37.5 Z"/></g>
<g><path style="opacity:1" fill="#ffbd77" d="M 45.5,37.5 C 44.892,40.4062 43.5587,42.7396 41.5,44.5C 42.0787,41.6689 43.412,39.3356 45.5,37.5 Z"/></g>
<g><path style="opacity:0.169" fill="#fecd89" d="M 41.5,44.5 C 41.8333,46.5 42.1667,48.5 42.5,50.5C 41.8333,50.5 41.5,50.8333 41.5,51.5C 41.1667,51.5 40.8333,51.5 40.5,51.5C 40.6495,50.448 40.4828,49.448 40,48.5C 38.0583,52.0689 35.8916,55.4022 33.5,58.5C 33.5,57.8333 33.5,57.1667 33.5,56.5C 34.3382,56.1583 34.6716,55.4916 34.5,54.5C 35.3382,54.1583 35.6716,53.4916 35.5,52.5C 36.3382,52.1583 36.6716,51.4916 36.5,50.5C 37.3382,50.1583 37.6716,49.4916 37.5,48.5C 38.8333,47.1667 40.1667,45.8333 41.5,44.5 Z"/></g>
<g><path style="opacity:0.698" fill="#ffaf48" d="M 40.5,51.5 C 40.8333,51.5 41.1667,51.5 41.5,51.5C 41.5381,67.7087 41.5381,83.7087 41.5,99.5C 41.1667,99.5 40.8333,99.5 40.5,99.5C 40.5,83.5 40.5,67.5 40.5,51.5 Z"/></g>
<g><path style="opacity:0.016" fill="#fedab1" d="M 78.5,59.5 C 77.0242,57.2314 75.5242,54.8981 74,52.5C 73.2917,53.3805 72.4584,54.0472 71.5,54.5C 71.7218,51.9236 73.0551,51.0902 75.5,52C 77.2024,54.2354 78.2024,56.7354 78.5,59.5 Z"/></g>
<g><path style="opacity:1" fill="#fe9006" d="M 40.5,51.5 C 40.5,67.5 40.5,83.5 40.5,99.5C 30.5,99.5 20.5,99.5 10.5,99.5C 10.5,99.1667 10.5,98.8333 10.5,98.5C 13.9911,93.5257 16.9911,88.1924 19.5,82.5C 20.9063,82.0269 21.573,81.0269 21.5,79.5C 23.2927,77.5739 24.2927,75.2406 24.5,72.5C 25.1667,72.5 25.5,72.1667 25.5,71.5C 26.1667,71.5 26.5,71.1667 26.5,70.5C 27.404,69.791 27.7373,68.791 27.5,67.5C 28.1667,67.5 28.5,67.1667 28.5,66.5C 28.5,66.1667 28.5,65.8333 28.5,65.5C 28.8333,65.5 29.1667,65.5 29.5,65.5C 31.588,63.6644 32.9213,61.3311 33.5,58.5C 35.8916,55.4022 38.0583,52.0689 40,48.5C 40.4828,49.448 40.6495,50.448 40.5,51.5 Z"/></g>
<g><path style="opacity:0.369" fill="#fed5a3" d="M 42.5,50.5 C 47.1272,59.0342 50.7939,68.0342 53.5,77.5C 49.0381,68.8978 45.3714,59.8978 42.5,50.5 Z"/></g>
<g><path style="opacity:0.071" fill="#fddeb7" d="M 73.5,44.5 C 70.8333,49.8333 68.1667,55.1667 65.5,60.5C 64.8333,60.5 64.5,60.8333 64.5,61.5C 64.1667,61.5 63.8333,61.5 63.5,61.5C 66.0804,55.3315 69.4137,49.6649 73.5,44.5 Z"/></g>
<g><path style="opacity:1" fill="#ff9004" d="M 78.5,59.5 C 82.3957,69.6223 87.0623,79.289 92.5,88.5C 92.2291,90.3797 92.8958,91.713 94.5,92.5C 94.461,95.089 95.461,97.089 97.5,98.5C 98.1667,98.5 98.5,98.8333 98.5,99.5C 86.8333,99.5 75.1667,99.5 63.5,99.5C 61.2259,94.6171 59.2259,89.6171 57.5,84.5C 58.0612,81.9597 57.3945,79.4597 55.5,77C 56.305,75.8873 56.9717,74.7206 57.5,73.5C 59.5,70.5 61.5,67.5 63.5,64.5C 63.5,64.1667 63.5,63.8333 63.5,63.5C 63.8333,63.5 64.1667,63.5 64.5,63.5C 66.5869,62.4154 67.9202,60.7488 68.5,58.5C 68.7376,56.5956 69.7376,55.2623 71.5,54.5C 72.4584,54.0472 73.2917,53.3805 74,52.5C 75.5242,54.8981 77.0242,57.2314 78.5,59.5 Z"/></g>
<g><path style="opacity:0.847" fill="#ffbe72" d="M 68.5,58.5 C 67.9202,60.7488 66.5869,62.4154 64.5,63.5C 64.5,62.8333 64.5,62.1667 64.5,61.5C 65.1667,61.5 65.5,61.1667 65.5,60.5C 66.5,59.8333 67.5,59.1667 68.5,58.5 Z"/></g>
<g><path style="opacity:0.247" fill="#edc690" d="M 32.5,58.5 C 32.8333,58.5 33.1667,58.5 33.5,58.5C 32.9213,61.3311 31.588,63.6644 29.5,65.5C 29.5,65.1667 29.5,64.8333 29.5,64.5C 29.5,64.1667 29.5,63.8333 29.5,63.5C 30.8333,63.1667 30.8333,62.8333 29.5,62.5C 29.3284,61.5084 29.6618,60.8417 30.5,60.5C 30.5,59.8333 30.8333,59.5 31.5,59.5C 32.1667,59.5 32.5,59.1667 32.5,58.5 Z"/></g>
<g><path style="opacity:0.004" fill="#fed6a7" d="M 62.5,63.5 C 62.5,64.1667 62.8333,64.5 63.5,64.5C 61.5,67.5 59.5,70.5 57.5,73.5C 56.9569,73.44 56.6236,73.1067 56.5,72.5C 58.2753,69.2624 60.2753,66.2624 62.5,63.5 Z"/></g>
<g><path style="opacity:0.157" fill="#d3c3ac" d="M 27.5,66.5 C 27.5,66.8333 27.5,67.1667 27.5,67.5C 27.7373,68.791 27.404,69.791 26.5,70.5C 26.1667,70.5 25.8333,70.5 25.5,70.5C 25.6596,68.847 26.3263,67.5137 27.5,66.5 Z"/></g>
<g><path style="opacity:0.035" fill="#fddcb4" d="M 78.5,59.5 C 83.9537,68.7419 88.6204,78.4086 92.5,88.5C 87.0623,79.289 82.3957,69.6223 78.5,59.5 Z"/></g>
<g><path style="opacity:0.102" fill="#c9bba9" d="M 24.5,72.5 C 24.2927,75.2406 23.2927,77.5739 21.5,79.5C 21.7073,76.7594 22.7073,74.4261 24.5,72.5 Z"/></g>
<g><path style="opacity:0.235" fill="#d0ba9e" d="M 21.5,79.5 C 21.573,81.0269 20.9063,82.0269 19.5,82.5C 19.427,80.9731 20.0937,79.9731 21.5,79.5 Z"/></g>
<g><path style="opacity:0.439" fill="#ffcd93" d="M 53.5,77.5 C 55.0709,79.6351 56.4043,81.9684 57.5,84.5C 59.2259,89.6171 61.2259,94.6171 63.5,99.5C 62.8333,99.5 62.1667,99.5 61.5,99.5C 58.8265,92.1561 56.1598,84.8228 53.5,77.5 Z"/></g>
<g><path style="opacity:0.176" fill="#fde0bb" d="M 92.5,88.5 C 94.1042,89.287 94.7709,90.6203 94.5,92.5C 92.8958,91.713 92.2291,90.3797 92.5,88.5 Z"/></g>
<g><path style="opacity:0.025" fill="#fde0c0" d="M 94.5,92.5 C 96.0075,94.1815 97.0075,96.1815 97.5,98.5C 95.461,97.089 94.461,95.089 94.5,92.5 Z"/></g>
</svg>
