<?xml version="1.0" encoding="UTF-8"?>
<!DOCTYPE svg PUBLIC "-//W3C//DTD SVG 1.1//EN" "http://www.w3.org/Graphics/SVG/1.1/DTD/svg11.dtd">
<svg xmlns="http://www.w3.org/2000/svg" version="1.1" width="300px" height="100px" style="shape-rendering:geometricPrecision; text-rendering:geometricPrecision; image-rendering:optimizeQuality; fill-rule:evenodd; clip-rule:evenodd" xmlns:xlink="http://www.w3.org/1999/xlink">
<g><path style="opacity:0.999" fill="#41424c" d="M 31.5,3.5 C 47.5148,2.68462 53.3481,10.018 49,25.5C 39.5303,35.255 30.8637,34.5883 23,23.5C 20.1699,14.2319 23.0033,7.56521 31.5,3.5 Z"/></g>
<g><path style="opacity:1" fill="#ff9212" d="M 84.5,34.5 C 80.7274,36.2848 79.0607,39.2848 79.5,43.5C 76.194,44.0867 75.194,45.7534 76.5,48.5C 74.576,52.0171 72.9094,55.6837 71.5,59.5C 70.8333,59.5 70.5,59.8333 70.5,60.5C 69.6618,60.8417 69.3284,61.5084 69.5,62.5C 69.1667,62.5 68.8333,62.5 68.5,62.5C 67.5987,63.2905 66.9321,64.2905 66.5,65.5C 66.5,65.8333 66.5,66.1667 66.5,66.5C 65.1634,67.3149 64.1634,68.4815 63.5,70C 62.2559,70.4561 61.4226,69.9561 61,68.5C 60.7216,69.4158 60.2216,70.0825 59.5,70.5C 59.9075,65.3207 58.5742,60.654 55.5,56.5C 54.8165,56.1373 54.1499,55.8039 53.5,55.5C 52.2616,53.7857 51.595,51.7857 51.5,49.5C 50.962,47.8828 50.6287,46.2161 50.5,44.5C 52.9969,38.835 55.9969,33.5016 59.5,28.5C 64.1776,25.1166 66.8443,20.4499 67.5,14.5C 68.6284,10.9099 70.295,7.57657 72.5,4.5C 82.1437,3.50158 91.8104,3.16825 101.5,3.5C 101.245,6.01632 100.411,8.34965 99,10.5C 94.3923,18.7297 89.5589,26.7297 84.5,34.5 Z"/></g>
<g><path style="opacity:1" fill="#ffaa50" d="M 67.5,14.5 C 66.8443,20.4499 64.1776,25.1166 59.5,28.5C 61.6643,23.4997 64.331,18.833 67.5,14.5 Z"/></g>
<g><path style="opacity:0.962" fill="#3e404a" d="M 129.5,21.5 C 133.167,21.5 136.833,21.5 140.5,21.5C 140.5,39.5 140.5,57.5 140.5,75.5C 136.833,75.5 133.167,75.5 129.5,75.5C 129.5,57.5 129.5,39.5 129.5,21.5 Z"/></g>
<g><path style="opacity:0.972" fill="#3e414a" d="M 151.5,21.5 C 186.162,18.8384 197.662,33.8384 186,66.5C 182.989,70.5198 179.156,73.3532 174.5,75C 166.841,75.4997 159.174,75.6664 151.5,75.5C 151.5,57.5 151.5,39.5 151.5,21.5 Z M 162.5,30.5 C 174.21,30.5471 179.876,36.5471 179.5,48.5C 179.897,60.433 174.23,66.433 162.5,66.5C 162.5,54.5 162.5,42.5 162.5,30.5 Z"/></g>
<g><path style="opacity:0.959" fill="#3e404a" d="M 198.5,21.5 C 207.663,20.9069 216.663,21.7402 225.5,24C 233.317,30.0864 235.484,37.9198 232,47.5C 229.833,52.3333 226.333,55.8333 221.5,58C 225.833,63.6667 230.167,69.3333 234.5,75C 230.167,75.6667 225.833,75.6667 221.5,75C 217.667,69.8333 213.833,64.6667 210,59.5C 209.501,64.8229 209.334,70.1563 209.5,75.5C 205.833,75.5 202.167,75.5 198.5,75.5C 198.5,57.5 198.5,39.5 198.5,21.5 Z M 209.5,30.5 C 220.895,30.2715 224.728,35.6048 221,46.5C 218.056,50.1136 214.223,51.4469 209.5,50.5C 209.5,43.8333 209.5,37.1667 209.5,30.5 Z"/></g>
<g><path style="opacity:0.955" fill="#3f404b" d="M 286.5,21.5 C 289.833,21.5 293.167,21.5 296.5,21.5C 296.5,39.5 296.5,57.5 296.5,75.5C 293.167,75.5 289.833,75.5 286.5,75.5C 286.5,57.5 286.5,39.5 286.5,21.5 Z"/></g>
<g><path style="opacity:0.985" fill="#3e404a" d="M 257.5,21.5 C 259.888,22.2187 261.388,23.8854 262,26.5C 268.643,42.7653 275.476,58.9319 282.5,75C 278.5,75.6667 274.5,75.6667 270.5,75C 269.331,72.9935 268.665,70.8268 268.5,68.5C 262.132,68.1703 255.798,68.5037 249.5,69.5C 248.253,71.323 247.586,73.323 247.5,75.5C 243.5,75.5 239.5,75.5 235.5,75.5C 242.277,57.2791 249.61,39.2791 257.5,21.5 Z M 257.5,45.5 C 258.497,45.4701 259.164,45.9701 259.5,47C 260.976,51.0981 262.642,55.0981 264.5,59C 260.5,59.6667 256.5,59.6667 252.5,59C 254.873,54.7559 256.539,50.2559 257.5,45.5 Z"/></g>
<g><path style="opacity:1" fill="#ffae58" d="M 84.5,34.5 C 83.0834,37.669 81.4168,40.669 79.5,43.5C 79.0607,39.2848 80.7274,36.2848 84.5,34.5 Z"/></g>
<g><path style="opacity:0.979" fill="#43444e" d="M 43.5,54.5 C 42.6618,54.8417 42.3284,55.5084 42.5,56.5C 41.6618,56.8417 41.3284,57.5084 41.5,58.5C 40.6618,58.8417 40.3284,59.5084 40.5,60.5C 39.6618,60.8417 39.3284,61.5084 39.5,62.5C 38.8333,62.5 38.5,62.8333 38.5,63.5C 38.5,63.8333 38.5,64.1667 38.5,64.5C 37.1667,64.8333 37.1667,65.1667 38.5,65.5C 38.5,66.1667 38.1667,66.5 37.5,66.5C 36.1667,66.8333 36.1667,67.1667 37.5,67.5C 37.5,68.1667 37.1667,68.5 36.5,68.5C 35.8333,68.5 35.5,68.8333 35.5,69.5C 35.5,69.8333 35.5,70.1667 35.5,70.5C 34.8333,70.5 34.5,70.8333 34.5,71.5C 33.3263,72.5137 32.6596,73.847 32.5,75.5C 29.6704,81.8302 26.337,87.8302 22.5,93.5C 22.5,75.1667 22.5,56.8333 22.5,38.5C 31.8571,38.1684 41.1904,38.5017 50.5,39.5C 47.8817,44.4014 45.5484,49.4014 43.5,54.5 Z"/></g>
<g><path style="opacity:0.997" fill="#ffb668" d="M 79.5,43.5 C 78.8897,45.4341 77.8897,47.1007 76.5,48.5C 75.194,45.7534 76.194,44.0867 79.5,43.5 Z"/></g>
<g><path style="opacity:0.584" fill="#ffb65c" d="M 50.5,44.5 C 50.6287,46.2161 50.962,47.8828 51.5,49.5C 50.8333,64.5 50.1667,79.5 49.5,94.5C 49.8326,79.8182 49.4993,65.1515 48.5,50.5C 47.1505,53.6753 45.4838,56.6753 43.5,59.5C 42.8165,59.8627 42.1499,60.1961 41.5,60.5C 41.5,59.8333 41.5,59.1667 41.5,58.5C 42.3382,58.1583 42.6716,57.4916 42.5,56.5C 43.3382,56.1583 43.6716,55.4916 43.5,54.5C 45.8333,51.1667 48.1667,47.8333 50.5,44.5 Z"/></g>
<g><path style="opacity:1" fill="#fe9006" d="M 49.5,94.5 C 40.3178,94.8266 31.3178,94.4933 22.5,93.5C 26.337,87.8302 29.6704,81.8302 32.5,75.5C 34.1042,74.713 34.7709,73.3797 34.5,71.5C 35.1667,71.5 35.5,71.1667 35.5,70.5C 35.5,70.1667 35.5,69.8333 35.5,69.5C 36.1667,69.5 36.5,69.1667 36.5,68.5C 37.1667,68.5 37.5,68.1667 37.5,67.5C 37.5,67.1667 37.5,66.8333 37.5,66.5C 38.1667,66.5 38.5,66.1667 38.5,65.5C 38.5,65.1667 38.5,64.8333 38.5,64.5C 38.5,64.1667 38.5,63.8333 38.5,63.5C 39.1667,63.5 39.5,63.1667 39.5,62.5C 40.3382,62.1583 40.6716,61.4916 40.5,60.5C 40.8333,60.5 41.1667,60.5 41.5,60.5C 42.1499,60.1961 42.8165,59.8627 43.5,59.5C 45.4838,56.6753 47.1505,53.6753 48.5,50.5C 49.4993,65.1515 49.8326,79.8182 49.5,94.5 Z"/></g>
<g><path style="opacity:1" fill="#ff920f" d="M 83.5,58.5 C 83.1961,59.1499 82.8627,59.8165 82.5,60.5C 86.8333,69.8333 91.1667,79.1667 95.5,88.5C 96.3569,89.4252 97.3569,90.0919 98.5,90.5C 99.3909,91.2613 100.058,92.2613 100.5,93.5C 89.8333,94.8333 79.1667,94.8333 68.5,93.5C 65.8681,87.2439 63.5348,80.9105 61.5,74.5C 61.5,73.5 61.5,72.5 61.5,71.5C 64.5256,71.1625 66.5256,69.4959 67.5,66.5C 67.5,66.1667 67.5,65.8333 67.5,65.5C 68.5,65.1667 69.1667,64.5 69.5,63.5C 69.5,63.1667 69.5,62.8333 69.5,62.5C 69.8333,62.5 70.1667,62.5 70.5,62.5C 71.9063,62.0269 72.573,61.0269 72.5,59.5C 74.4581,56.2085 76.7915,53.2085 79.5,50.5C 81.3716,52.9099 82.705,55.5766 83.5,58.5 Z"/></g>
<g><path style="opacity:0.733" fill="#ffca88" d="M 71.5,59.5 C 71.8333,59.5 72.1667,59.5 72.5,59.5C 72.573,61.0269 71.9063,62.0269 70.5,62.5C 70.5,61.8333 70.5,61.1667 70.5,60.5C 71.1667,60.5 71.5,60.1667 71.5,59.5 Z"/></g>
<g><path style="opacity:1" fill="#ffb567" d="M 53.5,55.5 C 54.1499,55.8039 54.8165,56.1373 55.5,56.5C 58.5742,60.654 59.9075,65.3207 59.5,70.5C 57.129,65.7353 55.129,60.7353 53.5,55.5 Z"/></g>
<g><path style="opacity:0.027" fill="#fde7cd" d="M 68.5,62.5 C 68.5,63.1667 68.8333,63.5 69.5,63.5C 69.1667,64.5 68.5,65.1667 67.5,65.5C 67.1667,65.5 66.8333,65.5 66.5,65.5C 66.9321,64.2905 67.5987,63.2905 68.5,62.5 Z"/></g>
<g><path style="opacity:1" fill="#ffb668" d="M 66.5,66.5 C 66.8333,66.5 67.1667,66.5 67.5,66.5C 66.5256,69.4959 64.5256,71.1625 61.5,71.5C 61.5,72.5 61.5,73.5 61.5,74.5C 60.3263,73.4863 59.6596,72.153 59.5,70.5C 60.2216,70.0825 60.7216,69.4158 61,68.5C 61.4226,69.9561 62.2559,70.4561 63.5,70C 64.1634,68.4815 65.1634,67.3149 66.5,66.5 Z"/></g>
<g><path style="opacity:0.082" fill="#dcc5a9" d="M 34.5,71.5 C 34.7709,73.3797 34.1042,74.713 32.5,75.5C 32.6596,73.847 33.3263,72.5137 34.5,71.5 Z"/></g>
<g><path style="opacity:1" fill="#ffa84c" d="M 83.5,58.5 C 89.0098,68.8565 94.0098,79.5231 98.5,90.5C 97.3569,90.0919 96.3569,89.4252 95.5,88.5C 91.1667,79.1667 86.8333,69.8333 82.5,60.5C 82.8627,59.8165 83.1961,59.1499 83.5,58.5 Z"/></g>
</svg>
