<?xml version="1.0" encoding="UTF-8"?>
<!DOCTYPE svg PUBLIC "-//W3C//DTD SVG 1.1//EN" "http://www.w3.org/Graphics/SVG/1.1/DTD/svg11.dtd">
<svg xmlns="http://www.w3.org/2000/svg" version="1.1" width="300px" height="100px" style="shape-rendering:geometricPrecision; text-rendering:geometricPrecision; image-rendering:optimizeQuality; fill-rule:evenodd; clip-rule:evenodd" xmlns:xlink="http://www.w3.org/1999/xlink">
<g><path style="opacity:0.921" fill="#fefefe" d="M 30.5,3.5 C 46.718,2.86539 52.5513,10.1987 48,25.5C 38.5711,35.3226 29.9044,34.656 22,23.5C 19.1489,14.2193 21.9823,7.55266 30.5,3.5 Z"/></g>
<g><path style="opacity:1" fill="#ff9211" d="M 92.5,20.5 C 89.194,21.0867 88.194,22.7534 89.5,25.5C 87.2407,26.344 86.2407,28.0107 86.5,30.5C 86.6716,31.4916 86.3382,32.1583 85.5,32.5C 82.194,33.0867 81.194,34.7534 82.5,37.5C 82.5,37.8333 82.5,38.1667 82.5,38.5C 80.4078,38.5614 78.9078,39.5614 78,41.5C 76.8604,44.1019 76.0271,46.7686 75.5,49.5C 74.5903,52.9922 72.9236,55.9922 70.5,58.5C 67.2266,59.062 66.2266,60.7287 67.5,63.5C 67.5,63.8333 67.5,64.1667 67.5,64.5C 65.6736,66.1475 64.3403,68.1475 63.5,70.5C 62.5416,70.9528 61.7083,71.6195 61,72.5C 60.9386,69.723 59.772,67.723 57.5,66.5C 54.7344,61.883 52.7344,56.883 51.5,51.5C 51.6716,50.5084 51.3382,49.8417 50.5,49.5C 50.3713,47.7839 50.038,46.1172 49.5,44.5C 50.5,44.1667 51.1667,43.5 51.5,42.5C 55.1817,38.8606 58.1817,34.5272 60.5,29.5C 60.3764,28.8933 60.0431,28.56 59.5,28.5C 59.5,28.1667 59.5,27.8333 59.5,27.5C 59.7497,25.326 60.7497,23.6594 62.5,22.5C 65.6213,21.2642 66.9546,18.9308 66.5,15.5C 67.8374,11.327 69.8374,7.49372 72.5,4C 82.1609,3.5002 91.8276,3.33353 101.5,3.5C 99.2806,9.60678 96.2806,15.2734 92.5,20.5 Z"/></g>
<g><path style="opacity:1" fill="#ffac52" d="M 66.5,15.5 C 66.9546,18.9308 65.6213,21.2642 62.5,22.5C 63.0787,19.6689 64.412,17.3356 66.5,15.5 Z"/></g>
<g><path style="opacity:0.997" fill="#ffb76c" d="M 92.5,20.5 C 91.8897,22.4341 90.8897,24.1007 89.5,25.5C 88.194,22.7534 89.194,21.0867 92.5,20.5 Z"/></g>
<g><path style="opacity:0.877" fill="#fefffe" d="M 129.5,21.5 C 133.167,21.5 136.833,21.5 140.5,21.5C 140.5,39.5 140.5,57.5 140.5,75.5C 136.833,75.5 133.167,75.5 129.5,75.5C 129.5,57.5 129.5,39.5 129.5,21.5 Z"/></g>
<g><path style="opacity:0.891" fill="#fefffe" d="M 151.5,21.5 C 186.162,18.8384 197.662,33.8384 186,66.5C 182.989,70.5198 179.156,73.3532 174.5,75C 166.841,75.4997 159.174,75.6664 151.5,75.5C 151.5,57.5 151.5,39.5 151.5,21.5 Z M 162.5,30.5 C 174.21,30.5471 179.876,36.5471 179.5,48.5C 179.897,60.433 174.23,66.433 162.5,66.5C 162.5,54.5 162.5,42.5 162.5,30.5 Z"/></g>
<g><path style="opacity:0.884" fill="#fefffe" d="M 198.5,21.5 C 207.663,20.9069 216.663,21.7402 225.5,24C 233.317,30.0864 235.484,37.9198 232,47.5C 229.833,52.3333 226.333,55.8333 221.5,58C 225.833,63.6667 230.167,69.3333 234.5,75C 230.167,75.6667 225.833,75.6667 221.5,75C 217.667,69.8333 213.833,64.6667 210,59.5C 209.501,64.8229 209.334,70.1563 209.5,75.5C 205.833,75.5 202.167,75.5 198.5,75.5C 198.5,57.5 198.5,39.5 198.5,21.5 Z M 209.5,30.5 C 220.895,30.2715 224.728,35.6048 221,46.5C 218.056,50.1136 214.223,51.4469 209.5,50.5C 209.5,43.8333 209.5,37.1667 209.5,30.5 Z"/></g>
<g><path style="opacity:0.879" fill="#fefffe" d="M 257.5,21.5 C 259.888,22.2187 261.388,23.8854 262,26.5C 268.643,42.7653 275.476,58.9319 282.5,75C 278.5,75.6667 274.5,75.6667 270.5,75C 269.331,72.9935 268.665,70.8268 268.5,68.5C 262.132,68.1703 255.798,68.5037 249.5,69.5C 248.253,71.323 247.586,73.323 247.5,75.5C 243.5,75.5 239.5,75.5 235.5,75.5C 242.277,57.2791 249.61,39.2791 257.5,21.5 Z M 257.5,45.5 C 258.497,45.4701 259.164,45.9701 259.5,47C 260.976,51.0981 262.642,55.0981 264.5,59C 260.5,59.6667 256.5,59.6667 252.5,59C 254.873,54.7559 256.539,50.2559 257.5,45.5 Z"/></g>
<g><path style="opacity:0.955" fill="#fefffe" d="M 286.5,21.5 C 289.833,21.5 293.167,21.5 296.5,21.5C 296.5,39.5 296.5,57.5 296.5,75.5C 293.167,75.5 289.833,75.5 286.5,75.5C 286.5,57.5 286.5,39.5 286.5,21.5 Z"/></g>
<g><path style="opacity:1" fill="#ffb568" d="M 89.5,25.5 C 88.8897,27.4341 87.8897,29.1007 86.5,30.5C 86.2407,28.0107 87.2407,26.344 89.5,25.5 Z"/></g>
<g><path style="opacity:0.278" fill="#fdd6a5" d="M 59.5,27.5 C 59.5,27.8333 59.5,28.1667 59.5,28.5C 59.1667,29.5 58.5,30.1667 57.5,30.5C 57.427,28.9731 58.0937,27.9731 59.5,27.5 Z"/></g>
<g><path style="opacity:0.997" fill="#ffb566" d="M 85.5,32.5 C 84.8897,34.4341 83.8897,36.1007 82.5,37.5C 81.194,34.7534 82.194,33.0867 85.5,32.5 Z"/></g>
<g><path style="opacity:1" fill="#ffa547" d="M 59.5,28.5 C 60.0431,28.56 60.3764,28.8933 60.5,29.5C 58.1817,34.5272 55.1817,38.8606 51.5,42.5C 51.5,42.1667 51.5,41.8333 51.5,41.5C 53.2495,37.6654 55.2495,33.9988 57.5,30.5C 58.5,30.1667 59.1667,29.5 59.5,28.5 Z"/></g>
<g><path style="opacity:0.973" fill="#fefdfd" d="M 43.5,53.5 C 42.6618,53.8417 42.3284,54.5084 42.5,55.5C 41.6618,55.8417 41.3284,56.5084 41.5,57.5C 40.1667,57.8333 40.1667,58.1667 41.5,58.5C 41.5,59.1667 41.1667,59.5 40.5,59.5C 39.1667,59.8333 39.1667,60.1667 40.5,60.5C 40.5,61.1667 40.1667,61.5 39.5,61.5C 38.1667,61.8333 38.1667,62.1667 39.5,62.5C 39.5,63.1667 39.1667,63.5 38.5,63.5C 37.1667,63.8333 37.1667,64.1667 38.5,64.5C 38.5,65.1667 38.1667,65.5 37.5,65.5C 36.8333,65.5 36.5,65.8333 36.5,66.5C 32.2573,75.9914 27.2573,84.9914 21.5,93.5C 21.5,75.1667 21.5,56.8333 21.5,38.5C 30.8333,38.5 40.1667,38.5 49.5,38.5C 47.7833,43.6021 45.7833,48.6021 43.5,53.5 Z"/></g>
<g><path style="opacity:0.996" fill="#ffb05d" d="M 82.5,38.5 C 80.4026,42.3723 78.0692,46.039 75.5,49.5C 76.0271,46.7686 76.8604,44.1019 78,41.5C 78.9078,39.5614 80.4078,38.5614 82.5,38.5 Z"/></g>
<g><path style="opacity:0.235" fill="#feddb6" d="M 51.5,41.5 C 51.5,41.8333 51.5,42.1667 51.5,42.5C 51.1667,43.5 50.5,44.1667 49.5,44.5C 49.427,42.9731 50.0937,41.9731 51.5,41.5 Z"/></g>
<g><path style="opacity:0.792" fill="#ffc37b" d="M 49.5,44.5 C 50.038,46.1172 50.3713,47.7839 50.5,49.5C 50.1667,49.5 49.8333,49.5 49.5,49.5C 49.5912,47.3023 48.9245,46.9689 47.5,48.5C 47.6596,46.847 48.3263,45.5137 49.5,44.5 Z"/></g>
<g><path style="opacity:0.067" fill="#fcdab0" d="M 78.5,51.5 C 79.6226,50.2426 80.2893,50.5759 80.5,52.5C 79.8333,52.1667 79.1667,51.8333 78.5,51.5 Z"/></g>
<g><path style="opacity:1" fill="#ff910b" d="M 49.5,49.5 C 49.5,49.8333 49.5,50.1667 49.5,50.5C 49.5,65.1667 49.5,79.8333 49.5,94.5C 39.985,94.8269 30.6517,94.4936 21.5,93.5C 27.2573,84.9914 32.2573,75.9914 36.5,66.5C 37.1667,66.5 37.5,66.1667 37.5,65.5C 38.1667,65.5 38.5,65.1667 38.5,64.5C 38.5,64.1667 38.5,63.8333 38.5,63.5C 39.1667,63.5 39.5,63.1667 39.5,62.5C 39.5,62.1667 39.5,61.8333 39.5,61.5C 40.1667,61.5 40.5,61.1667 40.5,60.5C 40.5,60.1667 40.5,59.8333 40.5,59.5C 41.1667,59.5 41.5,59.1667 41.5,58.5C 41.5,58.1667 41.5,57.8333 41.5,57.5C 42.3382,57.1583 42.6716,56.4916 42.5,55.5C 43.3382,55.1583 43.6716,54.4916 43.5,53.5C 45.0737,52.0158 46.407,50.3492 47.5,48.5C 48.9245,46.9689 49.5912,47.3023 49.5,49.5 Z"/></g>
<g><path style="opacity:1" fill="#ff9313" d="M 78.5,51.5 C 79.1667,51.8333 79.8333,52.1667 80.5,52.5C 87.392,65.9526 94.0586,79.6193 100.5,93.5C 89.8489,94.6657 79.1823,94.8324 68.5,94C 66.0245,88.2168 63.6911,82.3835 61.5,76.5C 61.7036,74.3146 62.3702,72.3146 63.5,70.5C 65.6326,68.9095 67.2993,66.9095 68.5,64.5C 68.5,64.1667 68.5,63.8333 68.5,63.5C 69.3382,63.1583 69.6716,62.4916 69.5,61.5C 70.1667,61.5 70.5,61.1667 70.5,60.5C 71.1667,60.1667 71.8333,59.8333 72.5,59.5C 76.3805,58.2814 78.3805,55.6147 78.5,51.5 Z"/></g>
<g><path style="opacity:0.035" fill="#fee2bd" d="M 50.5,49.5 C 51.3382,49.8417 51.6716,50.5084 51.5,51.5C 50.8333,65.8333 50.1667,80.1667 49.5,94.5C 49.5,79.8333 49.5,65.1667 49.5,50.5C 50.1667,50.5 50.5,50.1667 50.5,49.5 Z"/></g>
<g><path style="opacity:0.999" fill="#ffaf5a" d="M 78.5,51.5 C 78.3805,55.6147 76.3805,58.2814 72.5,59.5C 74.1223,56.5451 76.1223,53.8785 78.5,51.5 Z"/></g>
<g><path style="opacity:0.999" fill="#ffb261" d="M 70.5,58.5 C 70.5,59.1667 70.5,59.8333 70.5,60.5C 69.8333,60.5 69.5,60.8333 69.5,61.5C 68.6618,61.8417 68.3284,62.5084 68.5,63.5C 68.1667,63.5 67.8333,63.5 67.5,63.5C 66.2266,60.7287 67.2266,59.062 70.5,58.5 Z"/></g>
<g><path style="opacity:1" fill="#ffb565" d="M 57.5,66.5 C 59.772,67.723 60.9386,69.723 61,72.5C 61.7083,71.6195 62.5416,70.9528 63.5,70.5C 62.3702,72.3146 61.7036,74.3146 61.5,76.5C 59.6541,73.46 58.3208,70.1267 57.5,66.5 Z"/></g>
<g><path style="opacity:0.408" fill="#fed5a5" d="M 67.5,64.5 C 67.8333,64.5 68.1667,64.5 68.5,64.5C 67.2993,66.9095 65.6326,68.9095 63.5,70.5C 64.3403,68.1475 65.6736,66.1475 67.5,64.5 Z"/></g>
</svg>
