<svg xmlns="http://www.w3.org/2000/svg" xmlns:xlink="http://www.w3.org/1999/xlink" width="20" height="15" fill="none" xmlns:v="https://vecta.io/nano"><style><![CDATA[.B{fill-rule:evenodd}.C{fill:#fff}.D{fill:#c88a02}.E{fill:#ad1619}.F{fill:#f1f9ff}.G{fill:#005bbf}.H{fill:#ffc034}]]></style><g clip-path="url(#E)"><path d="M0 0h20v15H0z" class="C"/><path d="M0 0V15H20V0H0Z" fill="#ffb400" class="B"/><mask id="A" maskUnits="userSpaceOnUse" x="0" y="0" width="20" height="15"><path d="M0 0V15H20V0H0Z" class="B C"/></mask><g mask="url(#A)"><path d="M0 0v3.75h20V0H0zm0 11.25V15h20v-3.75H0z" fill="#c51918" class="B"/><path d="M3.13 6.42h.7v3.64h-.7z" class="F"/><path d="M4.11 5.79H2.85v.35h.21v.28h.84v-.28h.21v-.35zm-.21 4.48h.21v.35H2.85v-.35h.21v-.28h.84v.28z" class="B D"/><use xlink:href="#F" class="B E"/><path d="M2.85 10.62h1.26v.56s-.157-.07-.315-.07-.315.07-.315.07-.158-.07-.315-.07-.315.07-.315.07v-.56z" class="B G"/><mask id="B" maskUnits="userSpaceOnUse" x="2" y="10" width="3" height="2"><path d="M2.85 10.62h1.26v.56s-.157-.07-.315-.07-.315.07-.315.07-.158-.07-.315-.07-.315.07-.315.07v-.56z" class="B C"/></mask><g mask="url(#B)" class="C"><use xlink:href="#G"/><path d="M2.839 10.86l-.028-.067c.113-.05.227-.076.341-.076a.37.37 0 0 1 .178.039c.057.026.087.034.15.034s.093-.008.15-.034a.37.37 0 0 1 .178-.039c.114 0 .228.025.341.076l-.028.067c-.105-.047-.21-.07-.314-.07-.063 0-.093.008-.15.034a.37.37 0 0 1-.178.039.37.37 0 0 1-.178-.039c-.057-.026-.087-.034-.15-.034-.104 0-.209.023-.314.07z"/></g><path d="M9.99 6.42h.7v3.64h-.7z" class="F"/><path d="M10.97 5.79H9.71v.35h.21v.28h.84v-.28h.21v-.35zm-.21 4.48h.21v.35H9.71v-.35h.21v-.28h.84v.28z" class="B D"/><path d="M10.34 5.86c.152 0 .168-.057.258-.143.07-.067.232-.149.232-.242 0-.213-.219-.385-.49-.385s-.49.172-.49.385c0 .104.112.173.197.242s.155.143.293.143z" class="B E"/><path d="M9.71 10.62h1.26v.56s-.158-.07-.315-.07-.315.07-.315.07-.158-.07-.315-.07-.315.07-.315.07v-.56z" class="B G"/><mask id="C" maskUnits="userSpaceOnUse" x="9" y="10" width="2" height="2"><path d="M9.71 10.62h1.26v.56s-.158-.07-.315-.07-.315.07-.315.07-.158-.07-.315-.07-.315.07-.315.07v-.56z" class="B C"/></mask><g mask="url(#C)" class="C"><use xlink:href="#H"/><path d="M9.699 10.86l-.027-.067c.113-.05.227-.076.341-.076a.37.37 0 0 1 .177.039c.058.026.087.034.15.034s.093-.008.15-.034a.37.37 0 0 1 .178-.039c.114 0 .228.025.341.076l-.027.067c-.105-.047-.21-.07-.314-.07-.063 0-.093.008-.15.034a.37.37 0 0 1-.178.039.37.37 0 0 1-.178-.039c-.057-.026-.087-.034-.15-.034-.104 0-.209.023-.314.07z"/></g><path d="M3.117 9.8c.126-.153.197-.292.197-.44 0-.093-.028-.174-.076-.24l.008-.004c-.001 0 .138-.06.187-.084.09-.043.169-.089.247-.145a1.93 1.93 0 0 1 .217-.129l.095-.05.026-.014.12-.066c.106-.061.176-.112.229-.18.127-.161.1-.378-.077-.499-.087-.059-.204-.093-.376-.12l-.036-.006-.21-.033-.221-.036c.43-.072 1.045-.045 1.315.094l.257-.498c-.551-.284-1.806-.255-2.275.068-.344.237-.298.595.06.749.15.064.344.107.705.165l-.157.101c-.047.034-.098.064-.16.093l-.157.07-.02.009c-.291.133-.433.316-.391.647l.023.179.041.013.43.355zm-.36-.463l-.001.003.001-.002v-.001zm7.684.023c0 .148.071.287.197.44l.43-.355.041-.013.023-.179c.042-.331-.099-.514-.391-.647l-.02-.009h0l-.156-.07a1 1 0 0 1-.16-.093 1.78 1.78 0 0 0-.157-.101c.361-.058.556-.101.705-.165.358-.154.404-.512.06-.749-.469-.323-1.724-.352-2.275-.068l.257.498c.27-.14.885-.166 1.315-.094l-.221.036-.21.033-.036.006c-.172.027-.289.061-.376.12-.177.121-.204.338-.077.499.053.068.123.118.229.18l.119.066.026.014.095.05.217.129c.077.056.157.102.247.145l.187.084.008.004c-.049.066-.076.146-.076.24z" class="B E"/><path d="M3.702 7.75l.207.043v.308c-.22.176-.779.472-.779.472V7.75h.572zm6.495 0l-.207.043v.308c.22.176.779.472.779.472V7.75h-.572z" class="F"/><path d="M9.235 4.504v-.102c-.36-.258-.737-.388-1.131-.388-.378-.167-.76-.232-1.147-.195-.582-.059-1.168.195-1.168.195-.591 0-1.131.388-1.131.388v.102l.706.709s.199.682 1.59.522v.002l.986-.047.08-.024c.18-.053.387-.113.509-.453l.706-.709zM6.954 3.85c-.02.236-.135 1.659 0 1.88V3.85z" class="B E"/><path d="M5.196 5.093v-.002L4.7 4.624l.048-.051.466.439.012-.055c.076.017.132.023.164.019v-.095l.103.056c.051.027.124.035.219.019.07-.011.118-.093.133-.267l.031-.352.105.337c.048.153.12.22.224.22s.142-.037.146-.13l.013-.265.12.236c.043.085.103.124.187.124.121 0 .202-.101.202-.259h.002.138.002c0 .158.081.259.202.259.085 0 .144-.039.187-.124l.12-.236.013.265c.004.093.045.13.146.13s.176-.067.224-.22l.105-.337.031.352c.016.174.063.256.133.267.096.016.169.008.219-.019l.103-.056v.095c.032.003.088-.003.164-.019l.022.102.516-.485.048.051-.642.604c-.094.173-.141.286-.141.334 0 .072-.188.115-.554.159-.287.034-.626.058-.903.061h0-.035-.035 0c-.277-.003-.616-.027-.903-.061-.366-.044-.554-.087-.554-.159 0-.009-.002-.02-.005-.034a.55.55 0 0 1-.08-.193l-.056-.106-.142-.134-.004-.001zm3.441.011c-.115.02-.197.018-.241-.018a.55.55 0 0 1-.241.007c-.098-.016-.167-.081-.208-.19a.32.32 0 0 1-.203.124c.448.064.762.153.762.153s-.008.066-.027.144l.071-.136.007-.009.081-.076zm-1.105-.103c-.039-.019-.07-.047-.093-.084-.033.029-.071.051-.114.064l.206.019zm-.453-.033a.32.32 0 0 1-.134-.117.32.32 0 0 1-.133.117l.097-.002h0 .028.028 0l.114.003zm-1.69.207l-.065-.061c.078.008.136 0 .171-.028a.55.55 0 0 0 .241.007c.098-.016.167-.081.208-.19a.32.32 0 0 0 .196.123c-.386.054-.674.128-.751.149zm1.172-.194L6.362 5c.037-.019.067-.047.088-.081.033.029.07.05.111.063zm1.722.581c.049.023.088 0 .119-.044-.003.012-.004.023-.005.033-.004.003-.01.006-.019.009-.023.01-.058.02-.104.03-.09.021-.218.041-.37.059-.297.036-.649.059-.93.061s-.633-.025-.93-.061l-.37-.059-.092-.026c.16-.075 1.172-.142 1.354-.153l1.346.15zm.193-.013l-.001.001.001-.001h0z" class="B D"/><path d="M6.945 3.342a.21.21 0 1 0 0-.42.21.21 0 0 0 0 .42z" class="B G"/><path d="M6.809 4.373c.004.023.011.045.02.064-.027-.01-.059-.016-.094-.016-.097 0-.175.047-.175.105s.078.105.175.105.175-.047.175-.105c0 .058.078.105.175.105s.175-.047.175-.105-.078-.105-.175-.105c-.024 0-.048.003-.069.008a.26.26 0 0 0-.002-.096c-.018-.095-.08-.163-.136-.152s-.088.097-.07.192zm.101.152v-.003h0v.003zm-1.131-.019c-.009-.019-.016-.041-.02-.064-.018-.095.013-.181.07-.192s.118.057.136.152a.26.26 0 0 1 .002.096c.021-.005.044-.008.069-.008.097 0 .175.047.175.105s-.078.105-.175.105-.175-.047-.175-.105v-.003h0v.003c0 .058-.078.105-.175.105s-.175-.047-.175-.105.078-.105.175-.105c.035 0 .067.006.094.016zm2.192.064c-.008.057-.092.093-.188.08s-.167-.071-.159-.128.092-.093.188-.08c.034.005.065.015.091.029-.006-.02-.01-.042-.011-.066-.005-.097.038-.177.096-.18s.109.073.114.169a.26.26 0 0 1-.012.095.32.32 0 0 1 .069.001c.096.013.167.071.159.128s-.092.093-.188.08-.167-.071-.159-.128zm0 0v-.003h0l-.001.003zm.667.278c.085.045.177.041.204-.011l.001-.003c.008.009.018.015.03.019.055.017.123-.044.152-.137s.006-.181-.049-.198-.123.044-.152.137a.28.28 0 0 0-.012.066c-.019-.022-.045-.042-.075-.059-.085-.045-.177-.041-.204.011s.02.129.105.175zm-3.435.021c-.085.045-.177.041-.204-.011-.01.006-.02.013-.031.016-.055.017-.123-.044-.152-.137s-.006-.181.049-.198.123.044.152.137c.007.022.011.045.012.066.019-.022.045-.042.075-.059.085-.045.177-.041.204.011s-.02.13-.105.175zm1.664-2.321h.146v.092h.095v.146h-.095v.292h.095v.146H6.77v-.146h.097v-.292H6.77V2.64h.097v-.092z" class="B D"/><path d="M6.84 3.34h.28v.91h-.28z" class="D"/><path d="M5.713 3.492l-.001.07c-.621-.011-.977.08-1.067.26-.093.187-.076.414.055.683l-.063.031c-.14-.288-.159-.537-.054-.745.107-.214.484-.31 1.131-.299z" class="C"/><path d="M5.833 4.113l-.036.06c-.135-.081-.203-.218-.203-.408 0-.273.141-.433.451-.542.198-.07.469-.041.814.084l-.024.066c-.331-.12-.586-.147-.767-.083-.285.1-.405.236-.405.476 0 .167.056.281.169.348z" class="C"/><path d="M4.788 4.398l-.132.046c-.137-.39-.098-.655.136-.77.206-.101.507-.142.904-.126l-.006.14c-.376-.015-.655.023-.837.112-.154.075-.182.266-.066.597z" class="D"/><path d="M6.331 3.399c-.32 0-.452.078-.527.308-.048.147-.001.272.149.389l-.086.111c-.195-.151-.264-.337-.196-.543.096-.293.283-.405.66-.405.247 0 .439.065.572.197l.021.021v.675h-.14v-.615c-.104-.091-.255-.137-.453-.137z" class="D"/><path d="M8.156 3.562l.001.07c.621-.011.977.08 1.067.26.093.187.076.414-.055.683l.063.031c.14-.288.159-.537.055-.745-.107-.214-.484-.31-1.131-.299z" class="C"/><path d="M7.936 4.128l.036.06c.135-.081.203-.218.203-.408 0-.273-.141-.433-.451-.542-.198-.07-.469-.041-.814.084l.024.066c.331-.12.586-.147.767-.083.285.1.405.236.405.476 0 .167-.056.281-.169.348z" class="C"/><path d="M9.125 4.468l.132.046c.137-.39.098-.655-.136-.77-.206-.101-.507-.142-.904-.126l.006.14c.376-.015.655.023.837.112.154.075.182.266.066.597z" class="D"/><path d="M7.573 3.41c.32 0 .452.078.527.308.048.147.001.272-.149.389l.086.111c.195-.151.264-.337.196-.543-.096-.293-.283-.405-.66-.405-.247 0-.439.065-.572.197l-.021.021v.675h.14v-.615c.104-.091.255-.137.453-.137z" class="D"/><path opacity=".3" d="M4.67 5.79h4.55v4.088s-.338 1.372-2.275 1.372S4.67 9.842 4.67 9.842V5.79z" fill="#e1e5e8" class="B"/><mask id="D" maskUnits="userSpaceOnUse" x="4" y="5" width="6" height="7"><path d="M4.67 5.79h4.55v4.088s-.338 1.372-2.275 1.372S4.67 9.842 4.67 9.842V5.79z" class="B C"/></mask><g mask="url(#D)"><path d="M4.67 8.31h2.31v2.73H4.67z" class="H"/><path d="M4.95 8.45h.28v2.59h-.28zm.98 0h.28v2.59h-.28zm-.49 0h.28v2.59h-.28zm.98 0h.28v2.59h-.28zM4.67 5.72h2.31v2.66H4.67z" class="E"/><path d="M6.91 8.24h2.31v2.66H6.91z" class="E"/><path d="M6.91 5.79h2.45v2.59H6.91z" class="F"/><path d="M5.65 6h.21v.581H6v-.29h.21v.29h.21v.363h-.21v.653h.21v.363H5.16v-.363h.21v-.653h-.21v-.363h.14v-.29h.21v.29h.14V6z" class="B D"/><path d="M8.112 6.122l.143-.153.301.281-.143.153-.301-.281z" class="D"/><path d="M8.975 10.088V8.555h-1.75v1.52l.003.012c.089.377.39.568.872.568s.783-.186.872-.555l.003-.012zm-.875.357c-.387 0-.598-.13-.665-.395V8.765h1.33v1.297c-.067.256-.278.383-.665.383z" class="B H"/><path d="M8.172 8.683h-.146v.695l-.575-.625-.103.095.52.565h-.471v.21h.362.121l-.531.578.103.095.575-.625v.812h.146v-.739l.508.552.103-.095-.531-.578h.593v-.21h-.582l.52-.565-.103-.095-.508.552v-.622z" class="B H"/><path d="M8.427 10.902s-1.483.117-1.483-.84c0 0-.014.84-1.562.84v.755h3.045v-.755z" class="B F"/><path d="M6.945 8.87c.29 0 .525-.251.525-.56s-.235-.56-.525-.56-.525.251-.525.56.235.56.525.56z" stroke="#ad1619" stroke-width=".729" class="B G"/></g></g></g><defs><clipPath id="E"><path d="M0 0h20v15H0z" class="C"/></clipPath><path id="F" d="M3.48 5.86c.152 0 .168-.057.258-.143.07-.067.232-.149.232-.242 0-.213-.219-.385-.49-.385s-.49.172-.49.385c0 .104.112.173.197.242s.155.143.293.143z"/><path id="G" d="M2.839 11.07l-.028-.067c.113-.05.227-.076.341-.076a.37.37 0 0 1 .178.039c.057.026.087.034.15.034s.093-.008.15-.034a.37.37 0 0 1 .178-.039c.114 0 .228.025.341.076l-.028.067c-.105-.047-.21-.07-.314-.07-.063 0-.093.008-.15.034a.37.37 0 0 1-.178.039.37.37 0 0 1-.178-.039c-.057-.026-.087-.034-.15-.034-.104 0-.209.023-.314.07z"/><path id="H" d="M9.699 11.07l-.027-.067c.113-.05.227-.076.341-.076a.37.37 0 0 1 .177.039c.058.026.087.034.15.034s.093-.008.15-.034a.37.37 0 0 1 .178-.039c.114 0 .228.025.341.076l-.027.067c-.105-.047-.21-.07-.314-.07-.063 0-.093.008-.15.034a.37.37 0 0 1-.178.039.37.37 0 0 1-.178-.039c-.057-.026-.087-.034-.15-.034-.104 0-.209.023-.314.07z"/></defs></svg>